<?xml version="1.0" encoding="iso-8859-1"?>
<!-- Generator: Adobe Illustrator 19.0.0, SVG Export Plug-In . SVG Version: 6.00 Build 0)  -->
<svg version="1.1" id="Capa_1" xmlns="http://www.w3.org/2000/svg" xmlns:xlink="http://www.w3.org/1999/xlink" x="0px" y="0px"
	 viewBox="0 0 472.612 472.612" style="enable-background:new 0 0 472.612 472.612;" xml:space="preserve">
<g>
	<g>
		<path d="M345.007,90.584c-6.258,0-12.155,1.567-17.329,4.319V73.255c0-20.414-16.608-37.021-37.022-37.021
			c-6.258,0-12.155,1.567-17.329,4.319v-3.532C273.327,16.608,256.72,0,236.306,0c-20.414,0-37.021,16.608-37.021,37.021V58.67
			c-5.174-2.753-11.071-4.319-17.329-4.319c-20.413,0-37.021,16.608-37.021,37.021v98.133c-7.481-5.246-16.577-8.337-26.388-8.337
			c-15.419,0-27.963,12.544-27.963,27.963v117.76c0,80.351,65.371,145.722,145.722,145.722c80.351,0,145.722-65.371,145.722-145.722
			V127.605C382.028,107.192,365.421,90.584,345.007,90.584z M362.336,326.89c0,69.493-56.537,126.03-126.03,126.03
			c-69.493,0-126.03-56.536-126.03-126.03v-117.76c0-4.561,3.71-8.271,8.271-8.271c14.55,0,26.388,11.838,26.388,26.388v18.117
			v63.409c0,5.438,4.408,9.846,9.846,9.846s9.846-4.409,9.846-9.846v-63.409v-18.117V91.372c0-9.555,7.774-17.329,17.329-17.329
			s17.329,7.774,17.329,17.329v9.059v126.817c0,5.438,4.408,9.846,9.846,9.846s9.846-4.408,9.846-9.846V100.43v-9.059V37.021
			c0-9.555,7.774-17.329,17.329-17.329c9.555,0,17.329,7.774,17.329,17.329v36.234v18.117v135.876c0,5.438,4.409,9.846,9.846,9.846
			s9.846-4.408,9.846-9.846V91.372V73.255c0-9.555,7.774-17.329,17.329-17.329c9.556,0,17.33,7.774,17.33,17.329v153.993
			c0,5.438,4.409,9.846,9.846,9.846s9.846-4.408,9.846-9.846v-99.642c0-9.555,7.774-17.329,17.329-17.329
			s17.329,7.774,17.329,17.329V326.89z"/>
	</g>
</g>
<g>
</g>
<g>
</g>
<g>
</g>
<g>
</g>
<g>
</g>
<g>
</g>
<g>
</g>
<g>
</g>
<g>
</g>
<g>
</g>
<g>
</g>
<g>
</g>
<g>
</g>
<g>
</g>
<g>
</g>
</svg>
