<svg height="512pt" viewBox="0 -8 512 512" width="512pt" xmlns="http://www.w3.org/2000/svg"><path d="m59.003906 192.882812c3.914063.804688 8.316406-1.886718 9.246094-5.199218 6.5625-23.417969 17.652344-44.949219 32.96875-64 2.59375-3.226563 2.082031-7.949219-1.144531-10.542969-3.230469-2.59375-7.949219-2.082031-10.546875 1.144531-16.589844 20.640625-28.609375 43.972656-35.71875 69.351563-1.121094 3.988281 1.140625 8.410156 5.195312 9.246093zm0 0"/><path d="m428.941406 243.835938c4.144532 0 7.5-3.359376 7.5-7.5 0-107.480469-87.441406-194.921876-194.921875-194.921876-46.5 0-91.527343 16.644532-126.789062 46.863282-3.144531 2.695312-3.507813 7.429687-.8125 10.574218 2.695312 3.144532 7.429687 3.511719 10.574219.8125 32.542968-27.890624 74.105468-43.253906 117.027343-43.253906 99.207031 0 179.921875 80.714844 179.921875 179.925782 0 4.140624 3.359375 7.5 7.5 7.5zm0 0"/><path d="m387.996094 248.394531c.203125 0 .410156-.007812.617187-.027343 4.128907-.335938 7.203125-3.957032 6.867188-8.082032-2.566407-31.382812-11.347657-60.972656-26.113281-87.945312-11.984376-21.898438-30.042969-40.394532-52.222657-53.5-22.777343-13.457032-48.929687-20.570313-75.625-20.570313-69.945312 0-131.808593 46.769531-150.449219 113.757813-.652343 2.367187-1.433593 5.730468-2.320312 9.992187-1.34375 6.460938-6.609375 11.351563-13.101562 12.167969-6.28125.792969-13.480469 1.355469-21.398438 1.671875-4.136719.167969-7.359375 3.65625-7.191406 7.796875.167968 4.140625 3.648437 7.355469 7.792968 7.191406 8.339844-.332031 15.96875-.933594 22.671876-1.777344 12.847656-1.621093 23.261718-11.261718 25.910156-24 .824218-3.949218 1.527344-7 2.089844-9.042968 16.839843-60.503906 72.761718-102.761719 135.996093-102.761719 24.015625 0 47.527344 6.394531 67.996094 18.488281 19.855469 11.730469 36.003906 28.253906 46.691406 47.78125 13.75 25.117188 21.933594 52.695313 24.320313 81.964844.320312 3.925781 3.601562 6.894531 7.46875 6.894531zm0 0"/><path d="m354.636719 258.773438h.214843c4.042969 0 7.378907-3.21875 7.492188-7.289063.191406-6.871094-.011719-12.75-.605469-17.484375-.589843-30.816406-12.847656-59.910156-34.542969-81.960938-2.90625-2.953124-7.65625-2.988281-10.605468-.085937-2.953125 2.90625-2.992188 7.65625-.085938 10.609375 19.082032 19.386719 29.820313 44.996094 30.246094 72.101562.003906.289063.023438.578126.0625.867188.53125 4.019531.714844 9.242188.539062 15.535156-.117187 4.140625 3.144532 7.589844 7.285157 7.707032zm0 0"/><path d="m54.800781 266.765625 1.023438-.039063c23.125-.902343 42.25-3.816406 56.851562-8.664062 13.554688-4.5 23.019531-16.800781 24.113281-31.332031.210938-2.824219.554688-5.628907 1.019532-8.332031 4.167968-24.148438 16.796875-46.246094 35.566406-62.21875 19.007812-16.175782 43.210938-25.085938 68.144531-25.085938 16.9375 0 33.777344 4.136719 48.703125 11.964844 3.667969 1.921875 8.203125.507812 10.125-3.160156 1.925782-3.667969.511719-8.203126-3.15625-10.125-17.066406-8.949219-36.316406-13.679688-55.671875-13.679688-28.492187 0-56.148437 10.179688-77.863281 28.664062-21.4375 18.242188-35.867188 43.488282-40.628906 71.089844-.546875 3.175782-.949219 6.460938-1.195313 9.761719-.636719 8.480469-6.085937 15.628906-13.882812 18.21875-9.117188 3.027344-25.660157 6.855469-52.707031 7.910156l-1.023438.039063c-4.140625.164062-7.363281 3.648437-7.203125 7.789062.15625 4.039063 3.480469 7.207032 7.488281 7.207032.097656 0 .195313-.003907.296875-.007813zm0 0"/><path d="m260.558594 414.878906c-7.652344 4.734375-15.871094 9.035156-24.425782 12.785156-3.792968 1.664063-5.519531 6.089844-3.859374 9.882813 1.234374 2.8125 3.988281 4.488281 6.875 4.488281 1.003906 0 2.027343-.203125 3.007812-.632812 9.199219-4.03125 18.046875-8.664063 26.292969-13.769532 3.523437-2.183593 4.613281-6.804687 2.433593-10.328124-2.183593-3.519532-6.804687-4.605469-10.324218-2.425782zm0 0"/><path d="m317.148438 274.570312c4.109374.425782 7.808593-2.5625 8.238281-6.679687 1.800781-17.226563.75-29.429687.488281-31.96875-.226562-46.324219-37.980469-83.941406-84.355469-83.941406-41.171875 0-76.132812 29.425781-83.128906 69.972656-.933594 5.414063-1.203125 11.265625-.828125 17.886719.234375 4.039062-.519531 12.070312-8.148438 20.472656-10.167968 11.191406-34.515624 25.011719-92.773437 27.285156-4.140625.160156-7.363281 3.644532-7.203125 7.785156.15625 4.039063 3.480469 7.210938 7.488281 7.210938.097657 0 .199219-.003906.296875-.007812 50.945313-1.988282 85.699219-12.816407 103.296875-32.1875 11.308594-12.453126 12.386719-25.027344 12.019531-31.414063-.3125-5.46875-.105468-10.207031.632813-14.480469 5.75-33.332031 34.492187-57.523437 68.347656-57.523437 38.242188 0 69.355469 31.113281 69.355469 69.355469 0 .292968.019531.589843.050781.878906.015625.113281 1.339844 11.898437-.457031 29.117187-.429688 4.117188 2.558594 7.804688 6.679688 8.238281zm0 0"/><path d="m270.964844 368.230469c-2.742188-3.101563-7.484375-3.394531-10.585938-.648438-24.8125 21.945313-58.28125 36.636719-99.46875 43.660157-4.082031.695312-6.828125 4.570312-6.128906 8.65625.621094 3.65625 3.792969 6.238281 7.382812 6.238281.417969 0 .84375-.035157 1.269532-.109375 43.984375-7.5 79.945312-23.382813 106.882812-47.210938 3.101563-2.746094 3.394532-7.484375.648438-10.585937zm0 0"/><path d="m291.929688 236.027344c-.167969-27.65625-22.71875-50.101563-50.410157-50.101563-24.605469 0-45.5 17.582031-49.675781 41.800781-.492188 2.835938-.617188 6.164063-.386719 10.171876.53125 9.351562-.953125 27.664062-16.914062 45.234374-16.523438 18.195313-42.65625 29.691407-79.886719 35.144532-9.960938.769531-19.472656 1.582031-28.269531 2.410156-4.125.390625-7.152344 4.046875-6.761719 8.171875.386719 4.121094 4.054688 7.148437 8.167969 6.761719 8.792969-.828125 18.304687-1.640625 28.273437-2.410156.167969-.011719.332032-.03125.5-.054688 40.945313-5.960938 70.082032-19.023438 89.082032-39.9375 19.636718-21.625 21.449218-44.480469 20.78125-56.175781-.160157-2.816407-.09375-5.09375.191406-6.765625 2.9375-17.007813 17.613281-29.351563 34.898437-29.351563 19.523438 0 35.410157 15.882813 35.410157 35.410157 0 .210937.007812.425781.027343.636718.046875.546875 4.28125 55.175782-29.972656 93.148438-18.960937 21.019531-63.515625 45.832031-131.707031 52.441406-4.125.398438-7.144532 4.0625-6.742188 8.1875.375 3.875 3.640625 6.777344 7.453125 6.777344.242188 0 .488281-.011719.734375-.039063 60.625-5.871093 114.804688-27.835937 141.398438-57.320312 37.519531-41.585938 34.214844-98.746094 33.808594-104.140625zm0 0"/><path d="m164.851562 335.15625c-9.972656 4.332031-20.734374 7.925781-31.988281 10.679688-14.5625 3.566406-30.132812 5.78125-46.273437 6.582031-4.140625.207031-7.324219 3.726562-7.121094 7.863281.199219 4.011719 3.511719 7.128906 7.484375 7.128906.125 0 .25-.003906.378906-.011718 17.09375-.847657 33.613281-3.199219 49.101563-6.992188 12.074218-2.957031 23.644531-6.824219 34.394531-11.492188 20.628906-8.960937 38.710937-21.0625 53.746094-35.972656 15.683593-15.554687 24.03125-40.589844 23.507812-70.492187-.003906-.257813-.007812-.472657-.011719-.640625.164063-2.109375-.5625-4.273438-2.175781-5.886719-2.933593-2.925781-7.679687-2.921875-10.609375.007813-2.277344 2.285156-2.234375 4.777343-2.199218 6.78125.453124 25.777343-6.320313 46.933593-19.070313 59.578124-13.710937 13.59375-30.25 24.648438-49.164063 32.867188zm0 0"/><path d="m374.871094 390.539062c-4.144532 0-7.5 3.359376-7.5 7.5v15.078126c0 4.144531 3.355468 7.5 7.5 7.5 4.140625 0 7.5-3.355469 7.5-7.5v-15.078126c0-4.140624-3.359375-7.5-7.5-7.5zm0 0"/><path d="m397.714844 390.539062c-4.144532 0-7.5 3.359376-7.5 7.5v15.078126c0 4.144531 3.355468 7.5 7.5 7.5 4.144531 0 7.5-3.355469 7.5-7.5v-15.078126c0-4.140624-3.359375-7.5-7.5-7.5zm0 0"/><path d="m420.558594 390.539062c-4.140625 0-7.5 3.359376-7.5 7.5v15.078126c0 4.144531 3.359375 7.5 7.5 7.5 4.144531 0 7.5-3.355469 7.5-7.5v-15.078126c0-4.140624-3.355469-7.5-7.5-7.5zm0 0"/><path d="m397.714844 268.304688c-63.015625 0-114.285156 51.269531-114.285156 114.285156 0 63.019531 51.269531 114.285156 114.285156 114.285156s114.285156-51.265625 114.285156-114.285156c0-63.015625-51.269531-114.285156-114.285156-114.285156zm0 213.570312c-54.746094 0-99.285156-44.539062-99.285156-99.285156s44.539062-99.285156 99.285156-99.285156 99.285156 44.539062 99.285156 99.285156-44.539062 99.285156-99.285156 99.285156zm0 0"/><path d="m289.359375 463.425781c-15.5625 3.332031-31.589844 5.023438-47.636719 5.023438-60.558594 0-117.496094-23.585938-160.316406-66.40625-42.824219-42.824219-66.40625-99.757813-66.40625-160.320313 0-60.558594 23.582031-117.492187 66.40625-160.316406 42.824219-42.820312 99.757812-66.40625 160.316406-66.40625 60.5625 0 117.496094 23.585938 160.320313 66.40625 42.820312 42.824219 66.40625 99.757812 66.40625 160.316406 0 8.40625-.46875 16.886719-1.390625 25.203125-.457032 4.117188 2.507812 7.824219 6.625 8.28125 4.101562.457031 7.824218-2.511719 8.28125-6.628906.984375-8.863281 1.480468-17.898437 1.480468-26.855469 0-64.566406-25.140624-125.269531-70.796874-170.921875-45.65625-45.65625-106.359376-70.800781-170.925782-70.800781s-125.269531 25.144531-170.921875 70.800781c-45.65625 45.652344-70.800781 106.355469-70.800781 170.921875s25.144531 125.269532 70.800781 170.925782c45.652344 45.65625 106.355469 70.800781 170.921875 70.800781 17.101563 0 34.183594-1.800781 50.777344-5.355469 4.050781-.867188 6.632812-4.855469 5.765625-8.902344-.867187-4.050781-4.859375-6.632812-8.90625-5.765625zm0 0"/><path d="m441.996094 359.902344h-1.546875v-13.203125c0-23.5625-19.171875-42.730469-42.734375-42.730469s-42.734375 19.167969-42.734375 42.730469v13.203125h-1.546875c-6.546875 0-11.875 5.328125-11.875 11.875v63.339844c0 6.546874 5.328125 11.875 11.875 11.875h88.5625c6.550781 0 11.875-5.328126 11.875-11.875v-63.339844c0-6.546875-5.324219-11.875-11.875-11.875zm-72.015625-13.203125c0-15.289063 12.441406-27.730469 27.734375-27.730469 15.292968 0 27.730468 12.441406 27.730468 27.730469v13.203125h-55.464843zm68.890625 85.292969h-82.3125v-57.089844h82.3125zm0 0"/></svg>