<svg width="514" height="450" viewBox="0 0 514 450" fill="none" xmlns="http://www.w3.org/2000/svg">
<path d="M277.121 364.125C277.121 373.791 268.168 381.625 257.121 381.625C246.078 381.625 237.121 373.791 237.121 364.125C237.121 354.459 246.078 346.625 257.121 346.625C268.168 346.625 277.121 354.459 277.121 364.125ZM513 53.5V302C513 324.815 496.277 344.267 473 351.489V265.25C473 255.601 464.027 247.75 453 247.75H433V396.5C433 425.45 406.086 449 373 449H142C108.914 449 82 425.45 82 396.5V247.75H61C49.9727 247.75 41 255.601 41 265.25V351.489C17.7227 344.267 1 324.815 1 302V53.5C1 24.5498 27.9141 1 61 1H453C486.086 1 513 24.5498 513 53.5ZM245 141.875V157.625H275C279.965 157.625 284 154.091 284 149.75C284 145.409 279.965 141.875 275 141.875H245ZM273 99.5161C273 95.4146 269.188 92.0786 264.5 92.0786H245V106.875H265.656C269.797 106.379 273 103.272 273 99.5161ZM61 212.75H228.898V192.625H190V157.625H205V92.0786H190V57.0786H228.898V36H61C49.9727 36 41 43.8511 41 53.5V215.761C47.2617 213.816 53.9883 212.75 61 212.75ZM204.441 247.75C211.457 264.778 227.613 278.375 257.121 278.375C286.871 278.375 303.273 264.488 310.52 247.75H204.441ZM142 414H165.027C163.035 408.624 162 402.765 162 396.5C162 386.851 153.027 379 142 379C134.918 379 128.207 377.855 122 375.756V396.5C122 406.149 130.973 414 142 414ZM393 396.5V375.756C386.793 377.855 380.082 379 373 379C361.973 379 353 386.851 353 396.5C353 402.765 351.965 408.624 349.973 414H373C384.027 414 393 406.149 393 396.5V396.5ZM393 247.75H352.25C348.379 262.714 340.664 276.17 329.578 286.869C311.617 304.208 286.562 313.375 257.121 313.375C227.672 313.375 202.746 304.167 185.039 286.746C174.227 276.109 166.703 262.697 162.926 247.75H122V317.75C122 332.96 130.41 344 142 344C175.086 344 202 367.55 202 396.5C202 402.615 202 414 234 414H281C313 414 313 402.615 313 396.5C313 367.55 339.914 344 373 344C384.59 344 393 332.96 393 317.75V247.75ZM473 53.5C473 43.8511 464.027 36 453 36H268.898V57.2598C293.586 59.2114 313 77.4121 313 99.5161C313 106.195 311.223 112.515 308.066 118.141C317.852 125.985 324 137.25 324 149.75C324 173.392 302.02 192.625 275 192.625H268.898V212.75H453C460.012 212.75 466.738 213.816 473 215.761V53.5Z" fill="white" stroke="white"/>
</svg>
