<svg width="444" height="512" viewBox="0 0 444 512" fill="none" xmlns="http://www.w3.org/2000/svg">
<path d="M258.623 133.062C272.408 133.062 283.623 121.847 283.623 108.062C283.623 94.277 272.408 83.061 258.623 83.061C244.838 83.061 233.623 94.277 233.623 108.062C233.623 113.692 235.495 118.892 238.648 123.076L197.572 180.477C195.121 179.672 192.506 179.23 189.788 179.23C183.219 179.23 177.237 181.781 172.771 185.939L145.392 170.403C145.757 168.707 145.953 166.949 145.953 165.146C145.953 151.361 134.738 140.146 120.953 140.146C107.168 140.146 95.953 151.361 95.953 165.146C95.953 166.949 96.1491 168.707 96.5141 170.403L69.135 185.939C64.669 181.781 58.687 179.231 52.118 179.231C38.333 179.231 27.118 190.447 27.118 204.232C27.118 218.017 38.333 229.233 52.118 229.233C65.903 229.233 77.118 218.017 77.118 204.232C77.118 202.429 76.9221 200.671 76.5571 198.975L103.936 183.439C108.402 187.597 114.384 190.148 120.953 190.148C127.522 190.148 133.503 187.597 137.97 183.44L165.349 198.976C164.984 200.672 164.788 202.43 164.788 204.233C164.788 218.018 176.003 229.234 189.788 229.234C203.574 229.234 214.789 218.018 214.789 204.233C214.789 198.602 212.916 193.401 209.763 189.217L250.839 131.816C253.289 132.62 255.905 133.062 258.623 133.062ZM258.623 98.061C264.137 98.061 268.623 102.547 268.623 108.062C268.623 113.576 264.137 118.062 258.623 118.062C253.109 118.062 248.623 113.576 248.623 108.062C248.622 102.547 253.108 98.061 258.623 98.061ZM52.115 214.231C46.601 214.231 42.115 209.745 42.115 204.23C42.115 198.715 46.601 194.229 52.115 194.229C57.629 194.229 62.1151 198.715 62.1151 204.23C62.1151 209.745 57.629 214.231 52.115 214.231ZM120.951 175.146C115.437 175.146 110.951 170.66 110.951 165.145C110.951 159.631 115.437 155.145 120.951 155.145C126.465 155.145 130.951 159.631 130.951 165.145C130.952 170.66 126.465 175.146 120.951 175.146ZM189.787 214.231C184.273 214.231 179.787 209.745 179.787 204.23C179.787 198.715 184.273 194.229 189.787 194.229C195.302 194.229 199.788 198.715 199.788 204.23C199.788 209.745 195.301 214.231 189.787 214.231Z" fill="#BBBBBB"/>
<path d="M350.796 376.965H298.31H12.428H-46.785C-50.212 376.965 -53 374.177 -53 370.75V61.331C-53 57.904 -50.212 55.116 -46.785 55.116H-11.429C-7.287 55.116 -3.929 51.759 -3.929 47.616C-3.929 43.473 -7.287 40.116 -11.429 40.116H-46.785C-58.483 40.116 -68 49.633 -68 61.331V370.75C-68 382.448 -58.483 391.965 -46.785 391.965H4.928V408.471C4.928 417.874 12.578 425.524 21.981 425.524H97.055L61.715 494.522C59.827 498.209 61.284 502.728 64.971 504.617C66.065 505.178 67.233 505.443 68.384 505.443C71.109 505.443 73.738 503.953 75.065 501.36L113.908 425.524H196.83L235.673 501.36C237.001 503.953 239.629 505.443 242.354 505.443C243.505 505.443 244.673 505.176 245.767 504.617C249.454 502.728 250.912 498.209 249.023 494.522L213.683 425.524H288.757C298.16 425.524 305.81 417.875 305.81 408.471V391.965H350.796C354.938 391.965 358.296 388.608 358.296 384.465C358.296 380.322 354.938 376.965 350.796 376.965ZM290.81 408.471C290.81 409.603 289.889 410.524 288.757 410.524H21.981C20.849 410.524 19.928 409.603 19.928 408.471V391.965H290.81V408.471Z" fill="#BBBBBB"/>
<path d="M18.571 55.116H121.243H189.494H357.522C360.949 55.116 363.737 57.904 363.737 61.331V132.642C363.737 136.785 367.095 140.142 371.237 140.142C375.379 140.142 378.737 136.785 378.737 132.642V61.331C378.737 49.633 369.22 40.116 357.522 40.116H196.995V25.374C196.995 14.999 188.554 6.558 178.178 6.558H132.56C122.185 6.558 113.743 14.999 113.743 25.374V40.116H18.571C14.429 40.116 11.071 43.473 11.071 47.616C11.071 51.759 14.429 55.116 18.571 55.116ZM128.743 25.374C128.743 23.27 130.455 21.558 132.56 21.558H178.178C180.282 21.558 181.995 23.27 181.995 25.374V40.116H128.744V25.374H128.743Z" fill="#BBBBBB"/>
<path d="M36.902 267.576C32.76 267.576 29.402 270.933 29.402 275.076V341.348C29.402 345.491 32.76 348.848 36.902 348.848H67.329C71.471 348.848 74.829 345.491 74.829 341.348V275.076C74.829 270.933 71.471 267.576 67.329 267.576H36.902ZM59.829 333.849H44.402V282.577H59.829V333.849V333.849Z" fill="#BBBBBB"/>
<path d="M105.737 229.248C101.595 229.248 98.2371 232.605 98.2371 236.748V341.349C98.2371 345.492 101.595 348.849 105.737 348.849H136.164C140.306 348.849 143.664 345.492 143.664 341.349V236.748C143.664 232.605 140.306 229.248 136.164 229.248H105.737ZM128.665 333.849H113.238V244.248H128.665V333.849Z" fill="#BBBBBB"/>
<path d="M174.573 267.576C170.431 267.576 167.073 270.933 167.073 275.076V341.348C167.073 345.491 170.431 348.848 174.573 348.848H205C209.142 348.848 212.5 345.491 212.5 341.348V275.076C212.5 270.933 209.142 267.576 205 267.576H174.573ZM197.5 333.849H182.073V282.577H197.5V333.849Z" fill="#BBBBBB"/>
<path d="M243.409 311.832C239.267 311.832 235.909 315.189 235.909 319.332V341.349C235.909 345.492 239.267 348.849 243.409 348.849H273.836C277.978 348.849 281.336 345.492 281.336 341.349C281.336 337.206 277.978 333.849 273.836 333.849H250.909V319.332C250.909 315.189 247.551 311.832 243.409 311.832Z" fill="#BBBBBB"/>
<path d="M440.175 384.019L397.148 309.493C408.049 297.874 415.987 283.677 420.227 267.853C427.004 242.562 423.526 216.145 410.434 193.469C383.408 146.656 323.337 130.563 276.527 157.588C229.716 184.613 213.621 244.684 240.647 291.495C253.739 314.171 274.878 330.391 300.169 337.169C308.615 339.432 317.184 340.551 325.699 340.551C333.141 340.551 340.54 339.695 347.776 338.001L390.794 412.529C396.067 421.666 405.669 426.779 415.531 426.778C420.364 426.778 425.26 425.549 429.739 422.965C438.535 417.888 444 408.421 444 398.259C444 393.28 442.678 388.357 440.175 384.019ZM304.051 322.68C282.63 316.94 264.725 303.201 253.636 283.995C230.746 244.347 244.379 193.469 284.026 170.578C297.069 163.048 311.322 159.472 325.4 159.472C354.115 159.472 382.083 174.365 397.443 200.969C408.531 220.175 411.477 242.549 405.737 263.971C399.997 285.393 386.258 303.296 367.052 314.385C347.847 325.474 325.473 328.418 304.051 322.68ZM422.242 409.973C415.789 413.699 407.509 411.481 403.786 405.031L362.398 333.327C366.546 331.634 370.608 329.654 374.554 327.376C378.503 325.096 382.243 322.558 385.784 319.81L427.184 391.517C428.372 393.578 429 395.91 429 398.26C429 403.078 426.41 407.567 422.242 409.973Z" fill="#BBBBBB"/>
<path d="M393.542 263.611C398.837 246.555 397.576 228.295 389.991 212.195C388.225 208.447 383.757 206.841 380.01 208.606C376.262 210.372 374.656 214.84 376.422 218.587C382.405 231.287 383.398 245.696 379.217 259.162C375.013 272.702 365.931 284.065 353.644 291.159C340.642 298.667 325.493 300.659 310.992 296.774C296.49 292.888 284.368 283.587 276.862 270.585C261.365 243.744 270.595 209.3 297.436 193.803C317.061 182.474 341.416 183.988 359.487 197.66C362.791 200.16 367.494 199.509 369.993 196.205C372.492 192.902 371.841 188.198 368.537 185.699C345.646 168.378 314.792 166.461 289.935 180.812C273.463 190.322 261.68 205.678 256.757 224.05C251.834 242.422 254.361 261.612 263.871 278.084C273.381 294.557 288.737 306.339 307.109 311.263C313.244 312.907 319.47 313.72 325.655 313.72C337.993 313.72 350.172 310.484 361.143 304.149C376.71 295.163 388.216 280.767 393.542 263.611Z" fill="#BBBBBB"/>
</svg>
