<svg width="499" height="512" viewBox="0 0 499 512" fill="none" xmlns="http://www.w3.org/2000/svg">
<path d="M499 346.5C499 271.871 448.715 206.668 377.805 187.02C373.348 83.1406 287.457 0 182.5 0C74.6992 0 -13 87.6992 -13 195.5C-13 230.633 -3.64844 264.84 14.1094 294.871L-12.2812 390.277L83.1289 363.891C110.734 380.215 141.875 389.41 174.016 390.797C193.66 461.711 258.867 512 333.5 512C363.289 512 392.258 504.066 417.711 488.992L498.277 511.277L475.992 430.711C491.066 405.258 499 376.289 499 346.5V346.5ZM87.8633 331.453L30.7461 347.254L46.5469 290.137L42.9453 284.504C25.9727 257.949 17 227.172 17 195.5C17 104.242 91.2422 30 182.5 30C273.758 30 348 104.242 348 195.5C348 286.758 273.758 361 182.5 361C150.828 361 120.055 352.027 93.4961 335.055L87.8633 331.453ZM455.254 468.254L412.871 456.527L407.211 460.211C385.27 474.465 359.777 482 333.5 482C274.844 482 223.301 444.074 205.039 389.691C294.859 379.336 366.336 307.859 376.695 218.035C431.074 236.301 469 287.844 469 346.5C469 372.777 461.465 398.27 447.211 420.211L443.527 425.871L455.254 468.254Z" fill="#BBBBBB"/>
<path d="M167.5 271H197.5V301H167.5V271Z" fill="#BBBBBB"/>
<path d="M212.5 150C212.5 158.52 209.031 166.383 202.734 172.145L167.5 204.395V241H197.5V217.605L222.988 194.277C235.387 182.93 242.5 166.793 242.5 150C242.5 116.914 215.586 90 182.5 90C149.414 90 122.5 116.914 122.5 150H152.5C152.5 133.457 165.957 120 182.5 120C199.043 120 212.5 133.457 212.5 150Z" fill="#BBBBBB"/>
</svg>
