<svg width="476" height="512" viewBox="0 0 476 512" fill="none" xmlns="http://www.w3.org/2000/svg">
<g clip-path="url(#clip0)">
<path d="M379.679 24.4H-4.489C-21.864 24.4 -36 38.536 -36 55.911V376.051C-36 393.426 -21.864 407.561 -4.489 407.561H247.121C251.263 407.561 254.621 404.203 254.621 400.061C254.621 395.919 251.263 392.561 247.121 392.561H219.105V344.037C219.105 331.275 211.494 319.858 199.714 314.951L160.312 298.533C157.132 297.208 155.077 294.126 155.077 290.681V278.971C165.174 268.702 171.084 254.719 171.084 239.992V207.978C171.084 181.777 146.177 160.46 115.563 160.46C84.949 160.46 60.042 181.776 60.042 207.978V239.992C60.042 254.717 65.952 268.701 76.049 278.971V290.681C76.049 294.126 73.994 297.208 70.814 298.534L31.413 314.951C19.633 319.859 12.021 331.276 12.021 344.038V392.562H-4.489C-13.593 392.562 -21 385.155 -21 376.052V119.435H396.189V243.993C396.189 248.135 399.547 251.493 403.689 251.493C407.831 251.493 411.189 248.135 411.189 243.993V55.911C411.189 38.536 397.054 24.4 379.679 24.4ZM27.021 344.037C27.021 337.35 31.009 331.368 37.182 328.796L76.584 312.379C85.371 308.718 91.049 300.201 91.049 290.681V289.056C93.802 289.232 96.549 287.886 98.026 285.337C100.101 281.752 98.878 277.164 95.294 275.088C82.803 267.856 75.043 254.408 75.043 239.993V207.979C75.043 190.049 93.221 175.461 115.564 175.461C137.907 175.461 156.085 190.048 156.085 207.979V239.993C156.085 254.414 148.32 267.865 135.821 275.097C132.236 277.171 131.011 281.759 133.085 285.345C134.475 287.748 136.994 289.091 139.584 289.091C139.749 289.091 139.914 289.07 140.079 289.059V290.683C140.079 300.203 145.757 308.72 154.545 312.381L193.947 328.799C200.119 331.37 204.107 337.353 204.107 344.039V392.563H27.021V344.037ZM396.189 104.435H-21V55.911C-21 46.807 -13.593 39.4 -4.489 39.4H379.679C388.783 39.4 396.189 46.807 396.189 55.911V104.435Z" fill="#BBBBBB"/>
<path d="M3.59396 64.418H3.51395C-0.628046 64.418 -3.94604 67.776 -3.94604 71.918C-3.94604 76.06 -0.548044 79.418 3.59396 79.418C7.73596 79.418 11.094 76.06 11.094 71.918C11.094 67.776 7.73596 64.418 3.59396 64.418Z" fill="#BBBBBB"/>
<path d="M51.535 64.418H51.455C47.313 64.418 43.995 67.776 43.995 71.918C43.995 76.06 47.393 79.418 51.535 79.418C55.677 79.418 59.035 76.06 59.035 71.918C59.035 67.776 55.677 64.418 51.535 64.418Z" fill="#BBBBBB"/>
<path d="M27.524 64.418H27.444C23.302 64.418 19.984 67.776 19.984 71.918C19.984 76.06 23.382 79.418 27.524 79.418C31.666 79.418 35.024 76.06 35.024 71.918C35.024 67.776 31.666 64.418 27.524 64.418Z" fill="#BBBBBB"/>
<path d="M371.675 64.418H83.549C79.4069 64.418 76.049 67.776 76.049 71.918C76.049 76.06 79.4069 79.418 83.549 79.418H371.675C375.817 79.418 379.175 76.06 379.175 71.918C379.175 67.776 375.817 64.418 371.675 64.418Z" fill="#BBBBBB"/>
<path d="M470.964 294.5L362.917 256.918C361.321 256.362 359.585 256.362 357.989 256.918L280.29 283.943C276.378 285.304 274.31 289.579 275.67 293.491C277.031 297.403 281.306 299.47 285.217 298.111L360.452 271.943L460.64 306.791C459.767 316.368 456.829 337.825 447.087 363.519C435.211 394.842 410.585 438.58 360.452 471.207C310.535 438.718 285.926 395.216 274.026 364.067C260.701 329.188 259.909 301.69 259.902 301.416C259.809 297.279 256.432 294.009 252.245 294.085C248.104 294.173 244.818 297.601 244.905 301.742C244.931 302.946 245.691 331.648 259.79 368.836C272.794 403.135 300.126 451.384 356.487 486.464C357.7 487.219 359.075 487.597 360.45 487.597C361.825 487.597 363.2 487.22 364.413 486.464C420.774 451.384 448.106 403.135 461.11 368.836C475.21 331.648 475.97 302.946 475.995 301.742C476.067 298.492 474.034 295.567 470.964 294.5Z" fill="#BBBBBB"/>
<path d="M409.21 336.798C406.281 333.869 401.532 333.869 398.604 336.798L352.232 383.17L324.651 355.589C321.722 352.66 316.973 352.66 314.045 355.589C311.116 358.518 311.116 363.267 314.045 366.195L346.929 399.079C348.393 400.544 350.313 401.276 352.232 401.276C354.151 401.276 356.071 400.544 357.535 399.079L409.21 347.404C412.139 344.475 412.139 339.726 409.21 336.798Z" fill="#BBBBBB"/>
<path d="M347.665 152.456H219.608C211.059 152.456 204.105 159.411 204.105 167.959V191.97C204.105 200.519 211.06 207.473 219.608 207.473H347.664C356.213 207.474 363.168 200.519 363.168 191.97V167.959C363.168 159.41 356.213 152.456 347.665 152.456ZM348.167 191.97C348.167 192.248 347.941 192.473 347.664 192.473H219.608C219.331 192.474 219.105 192.248 219.105 191.97V167.959C219.105 167.681 219.331 167.456 219.608 167.456H347.664C347.942 167.456 348.167 167.682 348.167 167.959V191.97Z" fill="#BBBBBB"/>
<path d="M315.65 224.487H219.608C215.466 224.487 212.108 227.845 212.108 231.987C212.108 236.129 215.466 239.487 219.608 239.487H315.65C319.792 239.487 323.15 236.129 323.15 231.987C323.15 227.845 319.792 224.487 315.65 224.487Z" fill="#BBBBBB"/>
<path d="M275.633 256.502H219.608C215.466 256.502 212.108 259.86 212.108 264.002C212.108 268.144 215.466 271.502 219.608 271.502H275.633C279.775 271.502 283.133 268.144 283.133 264.002C283.133 259.86 279.775 256.502 275.633 256.502Z" fill="#BBBBBB"/>
</g>
<defs>
<clipPath id="clip0">
<rect width="511.997" height="511.997" fill="white" transform="translate(-36)"/>
</clipPath>
</defs>
</svg>
