<svg width="459" height="512" viewBox="0 0 459 512" fill="none" xmlns="http://www.w3.org/2000/svg">
<path d="M435 208H363C360.878 208 358.843 208.843 357.343 210.343C355.843 211.843 355 213.878 355 216C355 218.122 355.843 220.157 357.343 221.657C358.843 223.157 360.878 224 363 224H427V416H27V224H259C261.122 224 263.157 223.157 264.657 221.657C266.157 220.157 267 218.122 267 216C267 213.878 266.157 211.843 264.657 210.343C263.157 208.843 261.122 208 259 208H-29C-31.1217 208 -33.1566 208.843 -34.6569 210.343C-36.1571 211.843 -37 213.878 -37 216V488C-37 490.122 -36.1571 492.157 -34.6569 493.657C-33.1566 495.157 -31.1217 496 -29 496H435C437.122 496 439.157 495.157 440.657 493.657C442.157 492.157 443 490.122 443 488V216C443 213.878 442.157 211.843 440.657 210.343C439.157 208.843 437.122 208 435 208ZM427 432V448H27V432H427ZM-21 224H11V480H-21V224ZM427 480H27V464H427V480Z" fill="#BBBBBB"/>
<path d="M43 320C43 335.823 47.6919 351.29 56.4824 364.446C65.2729 377.602 77.7672 387.855 92.3853 393.91C107.003 399.965 123.089 401.55 138.607 398.463C154.126 395.376 168.38 387.757 179.569 376.569C190.757 365.38 198.376 351.126 201.463 335.607C204.55 320.089 202.965 304.003 196.91 289.385C190.855 274.767 180.602 262.273 167.446 253.482C154.29 244.692 138.823 240 123 240C101.79 240.023 81.455 248.459 66.4572 263.457C51.4593 278.455 43.0233 298.79 43 320V320ZM187 320C187 332.658 183.246 345.032 176.214 355.556C169.182 366.081 159.186 374.284 147.492 379.128C135.797 383.972 122.929 385.24 110.514 382.77C98.0994 380.301 86.6957 374.205 77.7452 365.255C68.7946 356.304 62.6992 344.901 60.2297 332.486C57.7603 320.071 59.0277 307.203 63.8717 295.508C68.7157 283.814 76.9188 273.818 87.4435 266.786C97.9683 259.754 110.342 256 123 256C139.968 256.019 156.236 262.768 168.234 274.766C180.232 286.764 186.981 303.032 187 320Z" fill="#BBBBBB"/>
<path d="M115 264L114.952 280C110.717 280.013 106.66 281.704 103.669 284.703C100.679 287.702 99 291.765 99 296V312C99 316.243 100.686 320.313 103.686 323.314C106.687 326.314 110.757 328 115 328H131V344H115V336H99V344C99 348.235 100.679 352.298 103.669 355.297C106.66 358.296 110.717 359.987 114.952 360L115 376H131L130.952 360H131C135.243 360 139.313 358.314 142.314 355.314C145.314 352.313 147 348.243 147 344V328C147 323.757 145.314 319.687 142.314 316.686C139.313 313.686 135.243 312 131 312H115V296H131V304H147V296C147 291.757 145.314 287.687 142.314 284.686C139.313 281.686 135.243 280 131 280H130.952L131 264H115Z" fill="#BBBBBB"/>
<path d="M241.216 292.216L235.08 334.856C234.851 336.439 235.102 338.054 235.8 339.492C236.498 340.931 237.611 342.127 238.996 342.927C240.38 343.727 241.973 344.094 243.568 343.98C245.163 343.866 246.687 343.277 247.944 342.288L281.808 315.648C282.607 315.017 283.28 314.24 283.792 313.36L407.8 98.584L414.728 102.584L382.728 158.008C382.194 158.918 381.846 159.925 381.703 160.97C381.56 162.016 381.626 163.079 381.895 164.099C382.165 165.119 382.634 166.075 383.274 166.913C383.915 167.752 384.716 168.455 385.629 168.982C386.543 169.51 387.552 169.851 388.598 169.987C389.645 170.123 390.707 170.051 391.725 169.774C392.744 169.498 393.697 169.023 394.531 168.377C395.365 167.73 396.063 166.925 396.584 166.008L432.584 103.656C433.645 101.819 433.932 99.635 433.383 97.5856C432.834 95.5362 431.493 93.7889 429.656 92.728L415.808 84.728L431.808 57.008C434.991 51.4915 435.851 44.9367 434.201 38.7855C432.551 32.6343 428.524 27.3906 423.008 24.208C417.491 21.0254 410.937 20.1646 404.785 21.8149C398.634 23.4652 393.391 27.4915 390.208 33.008L242.2 289.36C241.698 290.243 241.364 291.211 241.216 292.216V292.216ZM404.072 41.016C405.14 39.1936 406.886 37.8677 408.929 37.3277C410.971 36.7877 413.144 37.0775 414.974 38.1338C416.803 39.1901 418.14 40.9272 418.694 42.9659C419.247 45.0046 418.972 47.1796 417.928 49.016L401.928 76.728L388.072 68.728L404.072 41.016ZM256.832 296L380.072 82.56L393.928 90.56L270.704 304L253.768 317.32L256.832 296Z" fill="#BBBBBB"/>
<path d="M263 384L254.2 372.264C251.964 369.283 249.066 366.864 245.733 365.198C242.401 363.532 238.726 362.664 235 362.664C231.274 362.664 227.599 363.532 224.267 365.198C220.934 366.864 218.036 369.283 215.8 372.264L204.6 387.2C203.97 388.041 203.511 388.997 203.25 390.015C202.99 391.032 202.932 392.091 203.08 393.131C203.229 394.171 203.581 395.172 204.116 396.076C204.651 396.98 205.36 397.77 206.2 398.4C207.04 399.03 207.997 399.489 209.015 399.75C210.032 400.01 211.091 400.068 212.131 399.92C213.171 399.771 214.172 399.419 215.076 398.884C215.98 398.349 216.77 397.64 217.4 396.8L228.6 381.864C229.373 380.911 230.348 380.143 231.455 379.616C232.562 379.088 233.773 378.814 235 378.814C236.226 378.814 237.438 379.088 238.545 379.616C239.652 380.143 240.627 380.911 241.4 381.864L252.6 396.8C253.345 397.794 254.311 398.6 255.422 399.155C256.533 399.711 257.758 400 259 400H299C301.122 400 303.157 399.157 304.657 397.657C306.157 396.157 307 394.122 307 392C307 389.878 306.157 387.843 304.657 386.343C303.157 384.843 301.122 384 299 384H263Z" fill="#BBBBBB"/>
<path d="M395 256H339C336.878 256 334.843 256.843 333.343 258.343C331.843 259.843 331 261.878 331 264C331 266.122 331.843 268.157 333.343 269.657C334.843 271.157 336.878 272 339 272H395C397.122 272 399.157 271.157 400.657 269.657C402.157 268.157 403 266.122 403 264C403 261.878 402.157 259.843 400.657 258.343C399.157 256.843 397.122 256 395 256V256Z" fill="#BBBBBB"/>
<path d="M395 288H323C320.878 288 318.843 288.843 317.343 290.343C315.843 291.843 315 293.878 315 296C315 298.122 315.843 300.157 317.343 301.657C318.843 303.157 320.878 304 323 304H395C397.122 304 399.157 303.157 400.657 301.657C402.157 300.157 403 298.122 403 296C403 293.878 402.157 291.843 400.657 290.343C399.157 288.843 397.122 288 395 288Z" fill="#BBBBBB"/>
<path d="M403 328C403 325.878 402.157 323.843 400.657 322.343C399.157 320.843 397.122 320 395 320H307C304.878 320 302.843 320.843 301.343 322.343C299.843 323.843 299 325.878 299 328C299 330.122 299.843 332.157 301.343 333.657C302.843 335.157 304.878 336 307 336H395C397.122 336 399.157 335.157 400.657 333.657C402.157 332.157 403 330.122 403 328Z" fill="#BBBBBB"/>
<path d="M331 384C328.878 384 326.843 384.843 325.343 386.343C323.843 387.843 323 389.878 323 392C323 394.122 323.843 396.157 325.343 397.657C326.843 399.157 328.878 400 331 400H339C341.122 400 343.157 399.157 344.657 397.657C346.157 396.157 347 394.122 347 392C347 389.878 346.157 387.843 344.657 386.343C343.157 384.843 341.122 384 339 384H331Z" fill="#BBBBBB"/>
</svg>
