<svg width="440" height="512" viewBox="0 0 440 512" fill="none" xmlns="http://www.w3.org/2000/svg">
<path d="M363.143 129.356C356.347 122.561 345.68 121.559 337.736 126.972C307.81 147.37 157.706 249.941 141.574 266.072C118.18 289.467 118.18 327.531 141.574 350.926C153.271 362.622 168.637 368.471 184.001 368.471C199.365 368.471 214.73 362.622 226.428 350.926C242.559 334.794 345.129 184.69 365.528 154.764C370.939 146.821 369.938 136.153 363.143 129.356ZM198.142 322.641C190.345 330.44 177.656 330.44 169.859 322.641C162.061 314.844 162.06 302.159 169.855 294.361C176.123 288.167 218.74 257.773 271.174 221.326C234.728 273.76 204.334 316.375 198.142 322.641Z" fill="#BBBBBB"/>
<path d="M20.231 401.523L-4.459 413.567C-22.525 381.325 -32 345.338 -32 308.499C-32 281.508 -27.023 255.657 -17.94 231.816L10.351 245.386C13.141 246.724 16.086 247.358 18.987 247.358C26.44 247.358 33.595 243.173 37.034 236.003C41.81 226.044 37.61 214.097 27.65 209.32L-0.281998 195.922C34.435 139.302 94.502 99.827 164.001 93.417V123.498C164.001 134.544 172.955 143.498 184.001 143.498C195.047 143.498 204.001 134.544 204.001 123.498V93.402C227.829 95.571 250.885 101.639 272.772 111.519C282.837 116.064 294.684 111.585 299.229 101.52C303.774 91.452 299.297 79.607 289.229 75.062C256.063 60.091 220.659 52.499 184 52.499C115.62 52.499 51.333 79.127 2.98 127.479C-45.371 175.832 -72 240.119 -72 308.499C-72 359.029 -57.002 408.173 -28.627 450.614C-24.805 456.329 -18.486 459.5 -11.988 459.5C-9.034 459.5 -6.042 458.845 -3.231 457.474L37.769 437.474C47.697 432.631 51.819 420.658 46.976 410.73C42.133 400.803 30.159 396.682 20.231 401.523Z" fill="#BBBBBB"/>
<path d="M417.436 203.271C412.892 193.204 401.049 188.724 390.978 193.271C380.911 197.816 376.434 209.661 380.979 219.728C393.601 247.686 400 277.553 400 308.499C400 345.393 390.494 381.438 372.375 413.717L346.598 401.442C336.627 396.694 324.692 400.927 319.942 410.901C315.193 420.873 319.428 432.808 329.401 437.557L371.401 457.557C374.164 458.872 377.093 459.501 379.989 459.501C386.489 459.501 392.809 456.326 396.626 450.615C425.002 408.173 440 359.029 440 308.499C440 271.84 432.408 236.436 417.436 203.271Z" fill="#BBBBBB"/>
</svg>
