<svg width="25" height="25" viewBox="0 0 25 25" fill="none" xmlns="http://www.w3.org/2000/svg">
<g clip-path="url(#clip0)">
<path d="M10.269 11.298V1.883C10.269 0.844 11.113 0 12.152 0C13.191 0 14.035 0.844 14.035 1.883V11.298C14.035 12.337 13.191 13.181 12.152 13.181C11.113 13.181 10.269 12.337 10.269 11.298ZM19.616 2.761C19.006 2.278 18.116 2.384 17.633 2.995C17.15 3.607 17.255 4.495 17.867 4.979C20.107 6.746 21.391 9.392 21.391 12.24C21.391 17.334 17.246 21.479 12.153 21.479C7.05899 21.479 2.91399 17.334 2.91399 12.24C2.91399 9.393 4.19699 6.748 6.43499 4.982C7.04699 4.499 7.15199 3.611 6.66899 2.998C6.18599 2.386 5.29899 2.282 4.68499 2.764C1.76399 5.069 0.0889893 8.523 0.0889893 12.24C0.0889893 18.892 5.50099 24.303 12.152 24.303C18.803 24.303 24.215 18.891 24.215 12.24C24.215 8.521 22.538 5.067 19.616 2.761Z" fill="#BBBBBB"/>
</g>
<defs>
<clipPath id="clip0">
<rect width="24.303" height="24.303" fill="white"/>
</clipPath>
</defs>
</svg>
