<svg width="392" height="428" viewBox="0 0 392 428" fill="none" xmlns="http://www.w3.org/2000/svg">
<path d="M406.02 330.98C378.137 303.098 344.949 282.457 308.739 269.962C347.521 243.251 373 198.548 373 148C373 66.393 306.607 0 225 0C143.393 0 77 66.393 77 148C77 198.548 102.479 243.251 141.262 269.962C105.052 282.457 71.864 303.098 43.981 330.98C-4.371 379.333 -31 443.62 -31 512H9C9 392.897 105.897 296 225 296C344.103 296 441 392.897 441 512H481C481 443.62 454.371 379.333 406.02 330.98ZM225 256C165.449 256 117 207.552 117 148C117 88.448 165.449 40 225 40C284.551 40 333 88.448 333 148C333 207.552 284.551 256 225 256Z" fill="#BBBBBB"/>
</svg>
